<mxfile host="app.diagrams.net" modified="2020-04-18T14:31:52.718Z" agent="5.0 (X11; Linux x86_64) AppleWebKit/537.36 (KHTML, like Gecko) Chrome/81.0.4044.92 Safari/537.36" etag="BWzxxwpzN27pOjS4AfET" version="12.9.14" type="github">
  <diagram id="SRzJadWOmVFEWYtipgTz" name="Page-1">
    <mxGraphModel dx="868" dy="1582" grid="1" gridSize="10" guides="1" tooltips="1" connect="1" arrows="1" fold="1" page="1" pageScale="1" pageWidth="827" pageHeight="1169" math="0" shadow="0">
      <root>
        <mxCell id="0" />
        <mxCell id="1" parent="0" />
        <mxCell id="dQKZ8n2gB8oDay-uqMTe-2" value="" style="endArrow=classic;html=1;" edge="1" parent="1" source="dQKZ8n2gB8oDay-uqMTe-12">
          <mxGeometry width="50" height="50" relative="1" as="geometry">
            <mxPoint x="160" y="200" as="sourcePoint" />
            <mxPoint x="650" y="200" as="targetPoint" />
          </mxGeometry>
        </mxCell>
        <mxCell id="dQKZ8n2gB8oDay-uqMTe-3" value="" style="endArrow=classic;html=1;" edge="1" parent="1">
          <mxGeometry width="50" height="50" relative="1" as="geometry">
            <mxPoint x="160" y="200" as="sourcePoint" />
            <mxPoint x="160" as="targetPoint" />
          </mxGeometry>
        </mxCell>
        <mxCell id="dQKZ8n2gB8oDay-uqMTe-4" value="Depth map Quality" style="text;html=1;strokeColor=none;fillColor=none;align=center;verticalAlign=middle;whiteSpace=wrap;rounded=0;" vertex="1" parent="1">
          <mxGeometry x="140" y="-50" width="40" height="20" as="geometry" />
        </mxCell>
        <mxCell id="dQKZ8n2gB8oDay-uqMTe-6" value="x(cm)" style="text;html=1;strokeColor=none;fillColor=none;align=center;verticalAlign=middle;whiteSpace=wrap;rounded=0;" vertex="1" parent="1">
          <mxGeometry x="660" y="190" width="40" height="20" as="geometry" />
        </mxCell>
        <mxCell id="dQKZ8n2gB8oDay-uqMTe-9" value="" style="endArrow=none;html=1;" edge="1" parent="1">
          <mxGeometry width="50" height="50" relative="1" as="geometry">
            <mxPoint x="200" y="210" as="sourcePoint" />
            <mxPoint x="200" y="190" as="targetPoint" />
          </mxGeometry>
        </mxCell>
        <mxCell id="dQKZ8n2gB8oDay-uqMTe-12" value="&lt;b&gt;&lt;font style=&quot;font-size: 23px&quot;&gt;//&lt;/font&gt;&lt;/b&gt;" style="text;html=1;strokeColor=none;fillColor=none;align=center;verticalAlign=middle;whiteSpace=wrap;rounded=0;" vertex="1" parent="1">
          <mxGeometry x="170" y="190" width="10" height="20" as="geometry" />
        </mxCell>
        <mxCell id="dQKZ8n2gB8oDay-uqMTe-13" value="" style="endArrow=none;html=1;endFill=0;" edge="1" parent="1" target="dQKZ8n2gB8oDay-uqMTe-12">
          <mxGeometry width="50" height="50" relative="1" as="geometry">
            <mxPoint x="160" y="200" as="sourcePoint" />
            <mxPoint x="480" y="200" as="targetPoint" />
          </mxGeometry>
        </mxCell>
        <mxCell id="dQKZ8n2gB8oDay-uqMTe-18" value="" style="endArrow=none;html=1;" edge="1" parent="1">
          <mxGeometry width="50" height="50" relative="1" as="geometry">
            <mxPoint x="220" y="210" as="sourcePoint" />
            <mxPoint x="220" y="190" as="targetPoint" />
          </mxGeometry>
        </mxCell>
        <mxCell id="dQKZ8n2gB8oDay-uqMTe-19" value="" style="endArrow=none;html=1;" edge="1" parent="1">
          <mxGeometry width="50" height="50" relative="1" as="geometry">
            <mxPoint x="280" y="210" as="sourcePoint" />
            <mxPoint x="280" y="190" as="targetPoint" />
          </mxGeometry>
        </mxCell>
        <mxCell id="dQKZ8n2gB8oDay-uqMTe-20" value="" style="endArrow=none;html=1;" edge="1" parent="1">
          <mxGeometry width="50" height="50" relative="1" as="geometry">
            <mxPoint x="260" y="210" as="sourcePoint" />
            <mxPoint x="260" y="190" as="targetPoint" />
          </mxGeometry>
        </mxCell>
        <mxCell id="dQKZ8n2gB8oDay-uqMTe-21" value="" style="endArrow=none;html=1;" edge="1" parent="1">
          <mxGeometry width="50" height="50" relative="1" as="geometry">
            <mxPoint x="240" y="210" as="sourcePoint" />
            <mxPoint x="240" y="190" as="targetPoint" />
          </mxGeometry>
        </mxCell>
        <mxCell id="dQKZ8n2gB8oDay-uqMTe-22" value="" style="endArrow=none;html=1;" edge="1" parent="1">
          <mxGeometry width="50" height="50" relative="1" as="geometry">
            <mxPoint x="300" y="210" as="sourcePoint" />
            <mxPoint x="300" y="190" as="targetPoint" />
          </mxGeometry>
        </mxCell>
        <mxCell id="dQKZ8n2gB8oDay-uqMTe-23" value="" style="endArrow=none;html=1;" edge="1" parent="1">
          <mxGeometry width="50" height="50" relative="1" as="geometry">
            <mxPoint x="340" y="210" as="sourcePoint" />
            <mxPoint x="340" y="190" as="targetPoint" />
          </mxGeometry>
        </mxCell>
        <mxCell id="dQKZ8n2gB8oDay-uqMTe-24" value="" style="endArrow=none;html=1;" edge="1" parent="1">
          <mxGeometry width="50" height="50" relative="1" as="geometry">
            <mxPoint x="320" y="210" as="sourcePoint" />
            <mxPoint x="320" y="190" as="targetPoint" />
          </mxGeometry>
        </mxCell>
        <mxCell id="dQKZ8n2gB8oDay-uqMTe-25" value="" style="endArrow=none;html=1;" edge="1" parent="1">
          <mxGeometry width="50" height="50" relative="1" as="geometry">
            <mxPoint x="380" y="210" as="sourcePoint" />
            <mxPoint x="380" y="190" as="targetPoint" />
          </mxGeometry>
        </mxCell>
        <mxCell id="dQKZ8n2gB8oDay-uqMTe-26" value="" style="endArrow=none;html=1;" edge="1" parent="1">
          <mxGeometry width="50" height="50" relative="1" as="geometry">
            <mxPoint x="360" y="210" as="sourcePoint" />
            <mxPoint x="360" y="190" as="targetPoint" />
          </mxGeometry>
        </mxCell>
        <mxCell id="dQKZ8n2gB8oDay-uqMTe-27" value="" style="endArrow=none;html=1;" edge="1" parent="1">
          <mxGeometry width="50" height="50" relative="1" as="geometry">
            <mxPoint x="400" y="210" as="sourcePoint" />
            <mxPoint x="400" y="190" as="targetPoint" />
          </mxGeometry>
        </mxCell>
        <mxCell id="dQKZ8n2gB8oDay-uqMTe-28" value="" style="endArrow=none;html=1;" edge="1" parent="1">
          <mxGeometry width="50" height="50" relative="1" as="geometry">
            <mxPoint x="420" y="210" as="sourcePoint" />
            <mxPoint x="420" y="190" as="targetPoint" />
          </mxGeometry>
        </mxCell>
        <mxCell id="dQKZ8n2gB8oDay-uqMTe-29" value="60" style="text;html=1;strokeColor=none;fillColor=none;align=center;verticalAlign=middle;whiteSpace=wrap;rounded=0;fontSize=10;" vertex="1" parent="1">
          <mxGeometry x="180" y="210" width="40" height="20" as="geometry" />
        </mxCell>
        <mxCell id="dQKZ8n2gB8oDay-uqMTe-31" value="70" style="text;html=1;strokeColor=none;fillColor=none;align=center;verticalAlign=middle;whiteSpace=wrap;rounded=0;fontSize=10;" vertex="1" parent="1">
          <mxGeometry x="200" y="210" width="40" height="20" as="geometry" />
        </mxCell>
        <mxCell id="dQKZ8n2gB8oDay-uqMTe-32" value="80" style="text;html=1;strokeColor=none;fillColor=none;align=center;verticalAlign=middle;whiteSpace=wrap;rounded=0;fontSize=10;" vertex="1" parent="1">
          <mxGeometry x="220" y="210" width="40" height="20" as="geometry" />
        </mxCell>
        <mxCell id="dQKZ8n2gB8oDay-uqMTe-34" value="90" style="text;html=1;strokeColor=none;fillColor=none;align=center;verticalAlign=middle;whiteSpace=wrap;rounded=0;fontSize=10;" vertex="1" parent="1">
          <mxGeometry x="240" y="210" width="40" height="20" as="geometry" />
        </mxCell>
        <mxCell id="dQKZ8n2gB8oDay-uqMTe-35" value="100" style="text;html=1;strokeColor=none;fillColor=none;align=center;verticalAlign=middle;whiteSpace=wrap;rounded=0;fontSize=10;" vertex="1" parent="1">
          <mxGeometry x="260" y="210" width="40" height="20" as="geometry" />
        </mxCell>
        <mxCell id="dQKZ8n2gB8oDay-uqMTe-36" value="110" style="text;html=1;strokeColor=none;fillColor=none;align=center;verticalAlign=middle;whiteSpace=wrap;rounded=0;fontSize=10;" vertex="1" parent="1">
          <mxGeometry x="280" y="210" width="40" height="20" as="geometry" />
        </mxCell>
        <mxCell id="dQKZ8n2gB8oDay-uqMTe-38" value="120" style="text;html=1;strokeColor=none;fillColor=none;align=center;verticalAlign=middle;whiteSpace=wrap;rounded=0;fontSize=10;" vertex="1" parent="1">
          <mxGeometry x="300" y="210" width="40" height="20" as="geometry" />
        </mxCell>
        <mxCell id="dQKZ8n2gB8oDay-uqMTe-40" value="&lt;font style=&quot;font-size: 10px&quot;&gt;130&lt;br&gt;&lt;/font&gt;" style="text;html=1;strokeColor=none;fillColor=none;align=center;verticalAlign=middle;whiteSpace=wrap;rounded=0;" vertex="1" parent="1">
          <mxGeometry x="320" y="210" width="40" height="20" as="geometry" />
        </mxCell>
        <mxCell id="dQKZ8n2gB8oDay-uqMTe-41" value="&lt;font style=&quot;font-size: 10px&quot;&gt;140&lt;/font&gt;" style="text;html=1;strokeColor=none;fillColor=none;align=center;verticalAlign=middle;whiteSpace=wrap;rounded=0;" vertex="1" parent="1">
          <mxGeometry x="340" y="210" width="40" height="20" as="geometry" />
        </mxCell>
        <mxCell id="dQKZ8n2gB8oDay-uqMTe-44" value="250" style="text;html=1;align=center;verticalAlign=middle;resizable=0;points=[];autosize=1;fontSize=10;" vertex="1" parent="1">
          <mxGeometry x="570" y="210" width="30" height="20" as="geometry" />
        </mxCell>
        <mxCell id="dQKZ8n2gB8oDay-uqMTe-46" value="&lt;font style=&quot;font-size: 10px&quot;&gt;150&lt;/font&gt;" style="text;html=1;strokeColor=none;fillColor=none;align=center;verticalAlign=middle;whiteSpace=wrap;rounded=0;" vertex="1" parent="1">
          <mxGeometry x="360" y="210" width="40" height="20" as="geometry" />
        </mxCell>
        <mxCell id="dQKZ8n2gB8oDay-uqMTe-47" value="&lt;font style=&quot;font-size: 10px&quot;&gt;160&lt;/font&gt;" style="text;html=1;strokeColor=none;fillColor=none;align=center;verticalAlign=middle;whiteSpace=wrap;rounded=0;" vertex="1" parent="1">
          <mxGeometry x="380" y="210" width="40" height="20" as="geometry" />
        </mxCell>
        <mxCell id="dQKZ8n2gB8oDay-uqMTe-49" value="&lt;font style=&quot;font-size: 10px&quot;&gt;170&lt;/font&gt;" style="text;html=1;strokeColor=none;fillColor=none;align=center;verticalAlign=middle;whiteSpace=wrap;rounded=0;" vertex="1" parent="1">
          <mxGeometry x="400" y="210" width="40" height="20" as="geometry" />
        </mxCell>
        <mxCell id="dQKZ8n2gB8oDay-uqMTe-58" value="" style="endArrow=none;html=1;" edge="1" parent="1">
          <mxGeometry width="50" height="50" relative="1" as="geometry">
            <mxPoint x="460" y="210" as="sourcePoint" />
            <mxPoint x="460" y="190" as="targetPoint" />
          </mxGeometry>
        </mxCell>
        <mxCell id="dQKZ8n2gB8oDay-uqMTe-59" value="" style="endArrow=none;html=1;" edge="1" parent="1">
          <mxGeometry width="50" height="50" relative="1" as="geometry">
            <mxPoint x="440" y="210" as="sourcePoint" />
            <mxPoint x="440" y="190" as="targetPoint" />
          </mxGeometry>
        </mxCell>
        <mxCell id="dQKZ8n2gB8oDay-uqMTe-60" value="" style="endArrow=none;html=1;" edge="1" parent="1" source="dQKZ8n2gB8oDay-uqMTe-103">
          <mxGeometry width="50" height="50" relative="1" as="geometry">
            <mxPoint x="480" y="210" as="sourcePoint" />
            <mxPoint x="480" y="190" as="targetPoint" />
          </mxGeometry>
        </mxCell>
        <mxCell id="dQKZ8n2gB8oDay-uqMTe-61" value="" style="endArrow=none;html=1;" edge="1" parent="1">
          <mxGeometry width="50" height="50" relative="1" as="geometry">
            <mxPoint x="500" y="210" as="sourcePoint" />
            <mxPoint x="500" y="190" as="targetPoint" />
          </mxGeometry>
        </mxCell>
        <mxCell id="dQKZ8n2gB8oDay-uqMTe-62" value="" style="endArrow=none;html=1;" edge="1" parent="1">
          <mxGeometry width="50" height="50" relative="1" as="geometry">
            <mxPoint x="520" y="210" as="sourcePoint" />
            <mxPoint x="520" y="190" as="targetPoint" />
          </mxGeometry>
        </mxCell>
        <mxCell id="dQKZ8n2gB8oDay-uqMTe-63" value="" style="endArrow=none;html=1;" edge="1" parent="1" source="dQKZ8n2gB8oDay-uqMTe-105">
          <mxGeometry width="50" height="50" relative="1" as="geometry">
            <mxPoint x="540" y="210" as="sourcePoint" />
            <mxPoint x="540" y="190" as="targetPoint" />
          </mxGeometry>
        </mxCell>
        <mxCell id="dQKZ8n2gB8oDay-uqMTe-64" value="" style="endArrow=none;html=1;" edge="1" parent="1">
          <mxGeometry width="50" height="50" relative="1" as="geometry">
            <mxPoint x="580" y="210" as="sourcePoint" />
            <mxPoint x="580" y="190" as="targetPoint" />
          </mxGeometry>
        </mxCell>
        <mxCell id="dQKZ8n2gB8oDay-uqMTe-65" value="" style="endArrow=none;html=1;" edge="1" parent="1">
          <mxGeometry width="50" height="50" relative="1" as="geometry">
            <mxPoint x="560" y="210" as="sourcePoint" />
            <mxPoint x="560" y="190" as="targetPoint" />
          </mxGeometry>
        </mxCell>
        <mxCell id="dQKZ8n2gB8oDay-uqMTe-66" value="240" style="text;html=1;align=center;verticalAlign=middle;resizable=0;points=[];autosize=1;fontSize=10;" vertex="1" parent="1">
          <mxGeometry x="550" y="210" width="30" height="20" as="geometry" />
        </mxCell>
        <mxCell id="dQKZ8n2gB8oDay-uqMTe-67" value="230" style="text;html=1;align=center;verticalAlign=middle;resizable=0;points=[];autosize=1;fontSize=10;" vertex="1" parent="1">
          <mxGeometry x="530" y="210" width="30" height="20" as="geometry" />
        </mxCell>
        <mxCell id="dQKZ8n2gB8oDay-uqMTe-68" value="260" style="text;html=1;align=center;verticalAlign=middle;resizable=0;points=[];autosize=1;fontSize=10;" vertex="1" parent="1">
          <mxGeometry x="590" y="210" width="30" height="20" as="geometry" />
        </mxCell>
        <mxCell id="dQKZ8n2gB8oDay-uqMTe-69" value="210" style="text;html=1;align=center;verticalAlign=middle;resizable=0;points=[];autosize=1;fontSize=10;" vertex="1" parent="1">
          <mxGeometry x="490" y="210" width="30" height="20" as="geometry" />
        </mxCell>
        <mxCell id="dQKZ8n2gB8oDay-uqMTe-70" value="180" style="text;html=1;align=center;verticalAlign=middle;resizable=0;points=[];autosize=1;fontSize=10;" vertex="1" parent="1">
          <mxGeometry x="430" y="210" width="30" height="20" as="geometry" />
        </mxCell>
        <mxCell id="dQKZ8n2gB8oDay-uqMTe-71" value="190" style="text;html=1;align=center;verticalAlign=middle;resizable=0;points=[];autosize=1;fontSize=10;" vertex="1" parent="1">
          <mxGeometry x="450" y="210" width="30" height="20" as="geometry" />
        </mxCell>
        <mxCell id="dQKZ8n2gB8oDay-uqMTe-72" value="220" style="text;html=1;align=center;verticalAlign=middle;resizable=0;points=[];autosize=1;fontSize=10;" vertex="1" parent="1">
          <mxGeometry x="510" y="210" width="30" height="20" as="geometry" />
        </mxCell>
        <mxCell id="dQKZ8n2gB8oDay-uqMTe-73" value="200" style="text;html=1;align=center;verticalAlign=middle;resizable=0;points=[];autosize=1;fontSize=10;" vertex="1" parent="1">
          <mxGeometry x="470" y="210" width="30" height="20" as="geometry" />
        </mxCell>
        <mxCell id="dQKZ8n2gB8oDay-uqMTe-77" value="" style="endArrow=none;html=1;" edge="1" parent="1">
          <mxGeometry width="50" height="50" relative="1" as="geometry">
            <mxPoint x="610" y="210" as="sourcePoint" />
            <mxPoint x="610" y="190" as="targetPoint" />
          </mxGeometry>
        </mxCell>
        <mxCell id="dQKZ8n2gB8oDay-uqMTe-81" value="" style="endArrow=classic;html=1;fontSize=10;dashed=1;" edge="1" parent="1">
          <mxGeometry width="50" height="50" relative="1" as="geometry">
            <mxPoint x="590" y="280" as="sourcePoint" />
            <mxPoint x="590" y="200" as="targetPoint" />
          </mxGeometry>
        </mxCell>
        <mxCell id="dQKZ8n2gB8oDay-uqMTe-86" value="D = 257 cm" style="text;html=1;strokeColor=none;fillColor=none;align=center;verticalAlign=middle;whiteSpace=wrap;rounded=0;" vertex="1" parent="1">
          <mxGeometry x="560" y="280" width="80" height="20" as="geometry" />
        </mxCell>
        <mxCell id="dQKZ8n2gB8oDay-uqMTe-89" value="" style="endArrow=none;html=1;fontSize=10;" edge="1" parent="1">
          <mxGeometry width="50" height="50" relative="1" as="geometry">
            <mxPoint x="145" y="80" as="sourcePoint" />
            <mxPoint x="175" y="80" as="targetPoint" />
          </mxGeometry>
        </mxCell>
        <mxCell id="dQKZ8n2gB8oDay-uqMTe-90" value="1" style="text;html=1;strokeColor=none;fillColor=none;align=center;verticalAlign=middle;whiteSpace=wrap;rounded=0;fontSize=10;" vertex="1" parent="1">
          <mxGeometry x="100" y="70" width="40" height="20" as="geometry" />
        </mxCell>
        <mxCell id="dQKZ8n2gB8oDay-uqMTe-92" value="" style="ellipse;whiteSpace=wrap;html=1;aspect=fixed;fontSize=10;fillColor=#000000;" vertex="1" parent="1">
          <mxGeometry x="195" y="75" width="10" height="10" as="geometry" />
        </mxCell>
        <mxCell id="dQKZ8n2gB8oDay-uqMTe-95" value="" style="ellipse;whiteSpace=wrap;html=1;aspect=fixed;fontSize=10;fillColor=#000000;" vertex="1" parent="1">
          <mxGeometry x="215" y="90" width="10" height="10" as="geometry" />
        </mxCell>
        <mxCell id="dQKZ8n2gB8oDay-uqMTe-96" value="" style="ellipse;whiteSpace=wrap;html=1;aspect=fixed;fontSize=10;fillColor=#000000;" vertex="1" parent="1">
          <mxGeometry x="275" y="110" width="10" height="10" as="geometry" />
        </mxCell>
        <mxCell id="dQKZ8n2gB8oDay-uqMTe-97" value="" style="ellipse;whiteSpace=wrap;html=1;aspect=fixed;fontSize=10;fillColor=#000000;" vertex="1" parent="1">
          <mxGeometry x="395" y="150" width="10" height="10" as="geometry" />
        </mxCell>
        <mxCell id="dQKZ8n2gB8oDay-uqMTe-100" value="" style="ellipse;whiteSpace=wrap;html=1;aspect=fixed;fontSize=10;fillColor=#000000;" vertex="1" parent="1">
          <mxGeometry x="335" y="140" width="10" height="10" as="geometry" />
        </mxCell>
        <mxCell id="dQKZ8n2gB8oDay-uqMTe-106" value="" style="ellipse;whiteSpace=wrap;html=1;aspect=fixed;fontSize=10;fillColor=#FF3333;" vertex="1" parent="1">
          <mxGeometry x="595" y="195" width="10" height="10" as="geometry" />
        </mxCell>
        <mxCell id="dQKZ8n2gB8oDay-uqMTe-103" value="" style="ellipse;whiteSpace=wrap;html=1;aspect=fixed;fontSize=10;fillColor=#FF3333;" vertex="1" parent="1">
          <mxGeometry x="470" y="195" width="10" height="10" as="geometry" />
        </mxCell>
        <mxCell id="dQKZ8n2gB8oDay-uqMTe-109" value="" style="endArrow=none;html=1;" edge="1" parent="1" target="dQKZ8n2gB8oDay-uqMTe-103">
          <mxGeometry width="50" height="50" relative="1" as="geometry">
            <mxPoint x="480" y="210" as="sourcePoint" />
            <mxPoint x="480" y="190" as="targetPoint" />
          </mxGeometry>
        </mxCell>
        <mxCell id="dQKZ8n2gB8oDay-uqMTe-105" value="" style="ellipse;whiteSpace=wrap;html=1;aspect=fixed;fontSize=10;fillColor=#FF3333;" vertex="1" parent="1">
          <mxGeometry x="540" y="195" width="10" height="10" as="geometry" />
        </mxCell>
        <mxCell id="dQKZ8n2gB8oDay-uqMTe-114" value="" style="endArrow=none;html=1;" edge="1" parent="1" target="dQKZ8n2gB8oDay-uqMTe-105">
          <mxGeometry width="50" height="50" relative="1" as="geometry">
            <mxPoint x="540" y="210" as="sourcePoint" />
            <mxPoint x="540" y="190" as="targetPoint" />
          </mxGeometry>
        </mxCell>
      </root>
    </mxGraphModel>
  </diagram>
</mxfile>
